<?xml version="1.0" encoding="UTF-8" standalone="no"?>
<!DOCTYPE svg PUBLIC "-//W3C//DTD SVG 1.1//EN" "http://www.w3.org/Graphics/SVG/1.1/DTD/svg11.dtd">
<svg version="1.1" xmlns="http://www.w3.org/2000/svg" xmlns:xlink="http://www.w3.org/1999/xlink" preserveAspectRatio="xMidYMid meet" viewBox="0 0 640 640" width="640" height="640"><defs><path d="M147.46 261.55L147.46 261.55L147.46 261.55L147.46 176.34L147.46 219.3L147.46 219.3" id="b1zQ8j5aaV"></path><path d="M276.16 121.23L276.34 121.53L275.99 121.53L275.63 121.53L275.81 121.23L275.99 120.92L276.16 121.23Z" id="l1T6Zet6qS"></path><path d="M45.35 379.37L51.69 370.92L57.32 362.47L62.96 354.02L68.59 345.57L74.93 337.82L80.56 328.67L85.49 319.51L91.13 310.36L96.76 301.2L102.39 292.75L106.62 283.6L112.25 275.15L117.18 265.99L124.23 256.13L129.86 247.68L136.2 238.53L142.54 230.08L147.46 220.92L153.8 213.18" id="bCmIu4hbo"></path><path d="M153.8 213.18L161.55 220.22L165.77 229.37L170.7 239.23L176.34 248.39L180.56 257.54L184.79 266.7L189.72 276.56L193.94 285.71L198.87 294.87L204.51 304.02L209.44 313.88L215.07 325.15L219.3 334.3L224.23 344.16L229.15 353.32L235.49 361.77L241.13 370.22L246.76 378.67L251.69 387.82" id="d4mzo20V0s"></path><path d="M108.73 280.08L119.3 280.08L129.86 281.49L139.72 283.6L150.99 285.01L162.25 285.01L174.23 285.01L184.79 285.71L195.35 286.42" id="aoh1iA4ES"></path><path d="M427.23 279.51L436.25 285.36L438.28 295.82L441.15 308.36L442.5 319.57L445.21 329.29L446.52 339.8L441.97 349.22L436.02 359.43L429.95 367.52L423.15 375.66L414 380.4L404.04 383.77L392.72 388.63L381.2 389.98L369.72 392.03L358.17 392.67L345.13 392.69L334.9 391.14L324.63 388.89L314.36 386.64L302.57 383.06L292.91 378.66L283.93 373.52L276.24 365.48L269.99 357.37L264.39 347.8L258.02 337.58L254.59 327.89L251.72 315.36L251.81 304.07L254.08 292.66L256.38 281.95L260.17 271.86L263.99 262.48L267.74 251.69L271.57 242.31L279.73 232.69L289.53 226.5L300.93 223.05L313.81 220.22L326.09 219.53L337.65 218.89L349.2 218.25L360.76 217.61L371.63 217.71L381.98 221.37L391.64 225.77L399.94 231.65L407.63 239.69L414.64 248.47L421.65 257.25L427.89 265.37L433.46 274.23L436.21 284.65" id="dQoQ16U2n"></path><path d="M322.11 185.01L332.68 185.71L343.94 187.82L355.21 189.23L365.77 189.94L377.04 189.94" id="e1TOw6AHvw"></path><path d="M349.58 189.94L346.06 199.8L345.35 210.36L345.35 221.63L345.35 232.89L345.35 243.46L345.35 255.43L345.35 265.99L345.35 276.56L348.17 286.42L349.58 296.98L351.69 308.25L353.8 318.11L355.21 330.78L356.62 341.35L356.62 354.02L356.62 365.29L356.62 377.97L356.62 389.94L358.73 401.91L359.44 412.47L359.44 423.04" id="k1Mp7T59R"></path><path d="M328.45 420.22L343.94 420.22L354.51 420.22L365.07 420.22L375.63 420.22L386.9 420.22" id="axFZfMpzK"></path><path d="M520.7 228.67L515.77 237.82L511.55 249.8L508.73 259.66L503.8 269.51L498.17 278.67L491.13 287.82L484.08 297.68L478.45 307.54L473.52 317.4L466.48 327.26L461.55 337.82L455.92 349.09L450.28 357.54L446.06 366.7L441.83 375.85" id="a20KExZ82"></path><path d="M520.7 229.37L527.04 221.63L533.38 213.88L542.54 218.11L546.06 230.78L550.28 239.94L554.51 249.09L558.73 258.25L562.96 267.4L565.77 277.26L570 287.12L572.82 297.68L574.23 308.25L576.34 319.51L579.86 329.37L584.08 338.53L589.72 347.68L595.35 356.84L598.87 366.7L603.8 376.56" id="a21uKkqpp9"></path><path d="M486.9 290.29L499.58 290.29L511.55 290.29L523.52 290.29L536.9 290.29L549.58 292.4L561.55 293.81L572.11 295.22" id="bem7q3nv3"></path><path d="M134.79 526.56L144.65 528.67L154.51 521.63L151.69 511.77L141.83 508.25L133.38 513.88L132.68 524.44L136.9 536.42L144.65 544.16" id="b3UujSWA6F"></path><path d="M168.59 517.4L160.14 523.04L160.85 533.6L170 539.23L172.11 549.09L161.55 550.5L170 544.87L181.27 544.87L191.13 542.75" id="i200xzCCrA"></path><path d="M177.04 528.67L180.56 542.05L183.38 551.91" id="bWKfI9WP4"></path><path d="M218.59 514.59L218.59 526.56L218.59 537.82L219.3 549.09" id="a44pvE1MFB"></path><path d="M239.72 517.4L237.61 507.54L227.75 505.43L222.82 514.59L222.82 525.15L230.56 532.19L239.01 525.85L241.13 515.99L237.61 525.85L239.01 536.42L239.01 546.98" id="c3GVZnJYHv"></path><path d="M277.04 524.44L270.7 516.7L260.85 513.88L252.39 520.92L251.69 531.49L255.21 541.35L265.07 544.16L274.93 542.05L277.04 532.19L277.04 520.92" id="a5RqcevL3z"></path><path d="M296.06 511.77L288.31 518.81L284.08 527.97L284.08 538.53L291.83 545.57L300.99 541.35L296.76 532.19L287.61 536.42L293.94 544.87" id="a7U8qVs2Z"></path><path d="M144.65 544.16L153.8 539.94" id="a3vGW8kS3q"></path></defs><g><g><g><g><use xlink:href="#b1zQ8j5aaV" opacity="0" fill-opacity="0" stroke="#000000" stroke-width="1" stroke-opacity="1"></use></g></g><g><use xlink:href="#l1T6Zet6qS" opacity="1" fill="#cb458c" fill-opacity="1"></use></g><g><g><use xlink:href="#bCmIu4hbo" opacity="1" fill-opacity="0" stroke="#a28409" stroke-width="1" stroke-opacity="1"></use></g></g><g><g><use xlink:href="#d4mzo20V0s" opacity="1" fill-opacity="0" stroke="#927c0d" stroke-width="1" stroke-opacity="1"></use></g></g><g><g><use xlink:href="#aoh1iA4ES" opacity="1" fill-opacity="0" stroke="#80750e" stroke-width="1" stroke-opacity="1"></use></g></g><g><g><use xlink:href="#dQoQ16U2n" opacity="1" fill-opacity="0" stroke="#837200" stroke-width="1" stroke-opacity="1"></use></g></g><g><use xlink:href="#e1TOw6AHvw" opacity="1" fill="#8a7900" fill-opacity="1"></use><g><use xlink:href="#e1TOw6AHvw" opacity="1" fill-opacity="0" stroke="#83811b" stroke-width="1" stroke-opacity="1"></use></g></g><g><g><use xlink:href="#k1Mp7T59R" opacity="1" fill-opacity="0" stroke="#928507" stroke-width="1" stroke-opacity="1"></use></g></g><g><g><use xlink:href="#axFZfMpzK" opacity="1" fill-opacity="0" stroke="#8c7a00" stroke-width="1" stroke-opacity="1"></use></g></g><g><g><use xlink:href="#a20KExZ82" opacity="1" fill-opacity="0" stroke="#8f8200" stroke-width="1" stroke-opacity="1"></use></g></g><g><g><use xlink:href="#a21uKkqpp9" opacity="1" fill-opacity="0" stroke="#897407" stroke-width="1" stroke-opacity="1"></use></g></g><g><g><use xlink:href="#bem7q3nv3" opacity="1" fill-opacity="0" stroke="#987f02" stroke-width="1" stroke-opacity="1"></use></g></g><g><g><use xlink:href="#b3UujSWA6F" opacity="1" fill-opacity="0" stroke="#000000" stroke-width="1" stroke-opacity="1"></use></g></g><g><g><use xlink:href="#i200xzCCrA" opacity="1" fill-opacity="0" stroke="#000000" stroke-width="1" stroke-opacity="1"></use></g></g><g><g><use xlink:href="#bWKfI9WP4" opacity="1" fill-opacity="0" stroke="#000000" stroke-width="1" stroke-opacity="1"></use></g></g><g><g><use xlink:href="#a44pvE1MFB" opacity="1" fill-opacity="0" stroke="#000000" stroke-width="1" stroke-opacity="1"></use></g></g><g><g><use xlink:href="#c3GVZnJYHv" opacity="1" fill-opacity="0" stroke="#000000" stroke-width="1" stroke-opacity="1"></use></g></g><g><g><use xlink:href="#a5RqcevL3z" opacity="1" fill-opacity="0" stroke="#000000" stroke-width="1" stroke-opacity="1"></use></g></g><g><g><use xlink:href="#a7U8qVs2Z" opacity="1" fill-opacity="0" stroke="#000000" stroke-width="1" stroke-opacity="1"></use></g></g><g><g><use xlink:href="#a3vGW8kS3q" opacity="1" fill-opacity="0" stroke="#000000" stroke-width="1" stroke-opacity="1"></use></g></g></g></g></svg>